<mxfile host="Electron" modified="2023-12-21T12:35:31.095Z" agent="Mozilla/5.0 (Windows NT 10.0; Win64; x64) AppleWebKit/537.36 (KHTML, like Gecko) draw.io/22.1.11 Chrome/114.0.5735.289 Electron/25.9.8 Safari/537.36" etag="KPGOSpWFr17g0wnhCbUv" version="22.1.11" type="device" pages="2">
  <diagram name="Page-1" id="Ik7iC_yywqFGloejYcA3">
    <mxGraphModel dx="2049" dy="532" grid="1" gridSize="10" guides="1" tooltips="1" connect="1" arrows="1" fold="1" page="1" pageScale="1" pageWidth="1169" pageHeight="827" math="0" shadow="0">
      <root>
        <mxCell id="0" />
        <mxCell id="1" parent="0" />
        <mxCell id="Q8YDhiKlEanWH157P6Ze-27" value="Simulator Engine&lt;br&gt;&lt;br&gt;&lt;br&gt;&lt;br&gt;&lt;br&gt;Java" style="whiteSpace=wrap;html=1;aspect=fixed;" parent="1" vertex="1">
          <mxGeometry x="160" y="40" width="150" height="150" as="geometry" />
        </mxCell>
        <mxCell id="Q8YDhiKlEanWH157P6Ze-30" style="rounded=0;orthogonalLoop=1;jettySize=auto;html=1;exitX=0;exitY=0.5;exitDx=0;exitDy=0;entryX=1;entryY=0.5;entryDx=0;entryDy=0;endArrow=none;endFill=0;" parent="1" source="Q8YDhiKlEanWH157P6Ze-27" target="Q8YDhiKlEanWH157P6Ze-27" edge="1">
          <mxGeometry relative="1" as="geometry" />
        </mxCell>
        <mxCell id="Q8YDhiKlEanWH157P6Ze-32" value="Simulator View&lt;br&gt;&lt;br&gt;&lt;br&gt;&lt;br&gt;&lt;br&gt;HTML, JS" style="whiteSpace=wrap;html=1;aspect=fixed;" parent="1" vertex="1">
          <mxGeometry x="160" y="250" width="150" height="150" as="geometry" />
        </mxCell>
        <mxCell id="Q8YDhiKlEanWH157P6Ze-33" style="rounded=0;orthogonalLoop=1;jettySize=auto;html=1;exitX=0;exitY=0.5;exitDx=0;exitDy=0;entryX=1;entryY=0.5;entryDx=0;entryDy=0;endArrow=none;endFill=0;" parent="1" source="Q8YDhiKlEanWH157P6Ze-32" target="Q8YDhiKlEanWH157P6Ze-32" edge="1">
          <mxGeometry relative="1" as="geometry" />
        </mxCell>
        <mxCell id="Q8YDhiKlEanWH157P6Ze-34" value="" style="endArrow=classic;html=1;rounded=0;exitX=1;exitY=0.25;exitDx=0;exitDy=0;entryX=-0.008;entryY=0.625;entryDx=0;entryDy=0;entryPerimeter=0;" parent="1" source="Q8YDhiKlEanWH157P6Ze-32" target="Q8YDhiKlEanWH157P6Ze-43" edge="1">
          <mxGeometry width="50" height="50" relative="1" as="geometry">
            <mxPoint x="30" y="300" as="sourcePoint" />
            <mxPoint x="470" y="200" as="targetPoint" />
          </mxGeometry>
        </mxCell>
        <mxCell id="Q8YDhiKlEanWH157P6Ze-48" value="" style="endArrow=classic;html=1;rounded=0;exitX=0;exitY=0.75;exitDx=0;exitDy=0;entryX=1;entryY=0.5;entryDx=0;entryDy=0;" parent="1" source="Q8YDhiKlEanWH157P6Ze-43" target="Q8YDhiKlEanWH157P6Ze-32" edge="1">
          <mxGeometry width="50" height="50" relative="1" as="geometry">
            <mxPoint x="569" y="200" as="sourcePoint" />
            <mxPoint x="320" y="142" as="targetPoint" />
          </mxGeometry>
        </mxCell>
        <mxCell id="Q8YDhiKlEanWH157P6Ze-60" value="" style="group" parent="1" vertex="1" connectable="0">
          <mxGeometry x="800" y="160" width="120" height="90" as="geometry" />
        </mxCell>
        <mxCell id="Q8YDhiKlEanWH157P6Ze-58" value="Micro:bit" style="shape=or;whiteSpace=wrap;html=1;direction=south;" parent="Q8YDhiKlEanWH157P6Ze-60" vertex="1">
          <mxGeometry y="30" width="120" height="60" as="geometry" />
        </mxCell>
        <mxCell id="Q8YDhiKlEanWH157P6Ze-59" value="Python" style="rounded=0;whiteSpace=wrap;html=1;" parent="Q8YDhiKlEanWH157P6Ze-60" vertex="1">
          <mxGeometry width="120" height="30" as="geometry" />
        </mxCell>
        <mxCell id="Q8YDhiKlEanWH157P6Ze-63" value="" style="endArrow=classic;html=1;rounded=0;entryX=0;entryY=0.5;entryDx=0;entryDy=0;" parent="1" target="Q8YDhiKlEanWH157P6Ze-43" edge="1">
          <mxGeometry width="50" height="50" relative="1" as="geometry">
            <mxPoint x="310" y="140" as="sourcePoint" />
            <mxPoint x="440" y="160" as="targetPoint" />
          </mxGeometry>
        </mxCell>
        <mxCell id="Q8YDhiKlEanWH157P6Ze-64" value="" style="endArrow=classic;html=1;rounded=0;exitX=0;exitY=0.25;exitDx=0;exitDy=0;entryX=0.993;entryY=0.333;entryDx=0;entryDy=0;entryPerimeter=0;" parent="1" source="Q8YDhiKlEanWH157P6Ze-43" target="Q8YDhiKlEanWH157P6Ze-27" edge="1">
          <mxGeometry width="50" height="50" relative="1" as="geometry">
            <mxPoint x="420" y="240" as="sourcePoint" />
            <mxPoint x="470" y="190" as="targetPoint" />
          </mxGeometry>
        </mxCell>
        <mxCell id="Q8YDhiKlEanWH157P6Ze-67" value="" style="sketch=0;pointerEvents=1;shadow=0;dashed=0;html=1;strokeColor=none;fillColor=#000000;aspect=fixed;labelPosition=center;verticalLabelPosition=bottom;verticalAlign=top;align=center;outlineConnect=0;shape=mxgraph.vvd.wi_fi;rotation=45;direction=south;" parent="1" vertex="1">
          <mxGeometry x="835" y="260" width="50" height="50" as="geometry" />
        </mxCell>
        <mxCell id="Q8YDhiKlEanWH157P6Ze-68" value="" style="sketch=0;pointerEvents=1;shadow=0;dashed=0;html=1;strokeColor=none;fillColor=#000000;aspect=fixed;labelPosition=center;verticalLabelPosition=bottom;verticalAlign=top;align=center;outlineConnect=0;shape=mxgraph.vvd.wi_fi;rotation=45;direction=north;fillStyle=solid;" parent="1" vertex="1">
          <mxGeometry x="835" y="360" width="50" height="50" as="geometry" />
        </mxCell>
        <mxCell id="Q8YDhiKlEanWH157P6Ze-72" value="Micro:bit" style="shape=or;whiteSpace=wrap;html=1;rotation=-90;" parent="1" vertex="1">
          <mxGeometry x="830" y="390" width="60" height="120" as="geometry" />
        </mxCell>
        <mxCell id="Q8YDhiKlEanWH157P6Ze-75" value="Python" style="rounded=0;whiteSpace=wrap;html=1;" parent="1" vertex="1">
          <mxGeometry x="800" y="480" width="120" height="30" as="geometry" />
        </mxCell>
        <mxCell id="Q8YDhiKlEanWH157P6Ze-43" value="API Rest&lt;br&gt;&lt;br&gt;Python&lt;br&gt;&lt;br&gt;&lt;br&gt;&lt;br&gt;&lt;br&gt;&lt;br&gt;&lt;br&gt;&lt;br&gt;&lt;br&gt;" style="rounded=0;whiteSpace=wrap;html=1;" parent="1" vertex="1">
          <mxGeometry x="540" y="40" width="120" height="200" as="geometry" />
        </mxCell>
        <mxCell id="Q8YDhiKlEanWH157P6Ze-45" style="edgeStyle=orthogonalEdgeStyle;rounded=0;orthogonalLoop=1;jettySize=auto;html=1;exitX=0.5;exitY=1;exitDx=0;exitDy=0;" parent="1" source="Q8YDhiKlEanWH157P6Ze-43" target="Q8YDhiKlEanWH157P6Ze-43" edge="1">
          <mxGeometry relative="1" as="geometry" />
        </mxCell>
        <mxCell id="Q8YDhiKlEanWH157P6Ze-76" value="API Rest&lt;br&gt;&lt;br&gt;Python&lt;br&gt;&lt;br&gt;&lt;br&gt;&lt;br&gt;&lt;br&gt;&lt;br&gt;&lt;br&gt;&lt;br&gt;&lt;br&gt;" style="rounded=0;whiteSpace=wrap;html=1;" parent="1" vertex="1">
          <mxGeometry x="540" y="460" width="120" height="200" as="geometry" />
        </mxCell>
        <mxCell id="Q8YDhiKlEanWH157P6Ze-81" value="BD&lt;br&gt;EM&lt;br&gt;PostGre" style="shape=cylinder3;whiteSpace=wrap;html=1;boundedLbl=1;backgroundOutline=1;size=15;" parent="1" vertex="1">
          <mxGeometry x="570" y="550" width="60" height="86.19" as="geometry" />
        </mxCell>
        <mxCell id="Q8YDhiKlEanWH157P6Ze-84" value="Emergency Manager&lt;br&gt;&lt;br&gt;&lt;br&gt;Java" style="whiteSpace=wrap;html=1;" parent="1" vertex="1">
          <mxGeometry x="160" y="460" width="150" height="100" as="geometry" />
        </mxCell>
        <mxCell id="Q8YDhiKlEanWH157P6Ze-85" style="rounded=0;orthogonalLoop=1;jettySize=auto;html=1;exitX=0;exitY=0.5;exitDx=0;exitDy=0;entryX=1;entryY=0.5;entryDx=0;entryDy=0;endArrow=none;endFill=0;" parent="1" source="Q8YDhiKlEanWH157P6Ze-84" target="Q8YDhiKlEanWH157P6Ze-84" edge="1">
          <mxGeometry relative="1" as="geometry" />
        </mxCell>
        <mxCell id="Q8YDhiKlEanWH157P6Ze-88" value="Emergency View&lt;br&gt;&lt;br&gt;&lt;br&gt;HTML, JS, framework ?" style="whiteSpace=wrap;html=1;" parent="1" vertex="1">
          <mxGeometry x="160" y="590" width="150" height="100" as="geometry" />
        </mxCell>
        <mxCell id="Q8YDhiKlEanWH157P6Ze-89" style="rounded=0;orthogonalLoop=1;jettySize=auto;html=1;exitX=0;exitY=0.5;exitDx=0;exitDy=0;entryX=1;entryY=0.5;entryDx=0;entryDy=0;endArrow=none;endFill=0;" parent="1" source="Q8YDhiKlEanWH157P6Ze-88" target="Q8YDhiKlEanWH157P6Ze-88" edge="1">
          <mxGeometry relative="1" as="geometry" />
        </mxCell>
        <mxCell id="Q8YDhiKlEanWH157P6Ze-90" value="" style="endArrow=classic;html=1;rounded=0;entryX=1;entryY=0.5;entryDx=0;entryDy=0;exitX=0.017;exitY=0.54;exitDx=0;exitDy=0;exitPerimeter=0;" parent="1" source="Q8YDhiKlEanWH157P6Ze-76" target="Q8YDhiKlEanWH157P6Ze-88" edge="1">
          <mxGeometry width="50" height="50" relative="1" as="geometry">
            <mxPoint x="440" y="650" as="sourcePoint" />
            <mxPoint x="490" y="600" as="targetPoint" />
          </mxGeometry>
        </mxCell>
        <mxCell id="Q8YDhiKlEanWH157P6Ze-93" value="" style="endArrow=classic;html=1;rounded=0;entryX=0.5;entryY=0;entryDx=0;entryDy=0;exitX=0.5;exitY=1;exitDx=0;exitDy=0;entryPerimeter=0;" parent="1" source="Q8YDhiKlEanWH157P6Ze-76" target="Q8YDhiKlEanWH157P6Ze-102" edge="1">
          <mxGeometry width="50" height="50" relative="1" as="geometry">
            <mxPoint x="770" y="800" as="sourcePoint" />
            <mxPoint x="620" y="750" as="targetPoint" />
          </mxGeometry>
        </mxCell>
        <mxCell id="Q8YDhiKlEanWH157P6Ze-94" value="Emergency Gestion&lt;br&gt;&lt;br&gt;&lt;br&gt;HTML, JS, framework ?" style="whiteSpace=wrap;html=1;" parent="1" vertex="1">
          <mxGeometry x="160" y="710" width="150" height="100" as="geometry" />
        </mxCell>
        <mxCell id="Q8YDhiKlEanWH157P6Ze-95" style="rounded=0;orthogonalLoop=1;jettySize=auto;html=1;exitX=0;exitY=0.5;exitDx=0;exitDy=0;entryX=1;entryY=0.5;entryDx=0;entryDy=0;endArrow=none;endFill=0;" parent="1" source="Q8YDhiKlEanWH157P6Ze-94" target="Q8YDhiKlEanWH157P6Ze-94" edge="1">
          <mxGeometry relative="1" as="geometry" />
        </mxCell>
        <mxCell id="Q8YDhiKlEanWH157P6Ze-96" value="" style="endArrow=classic;html=1;rounded=0;exitX=1;exitY=0.5;exitDx=0;exitDy=0;entryX=0;entryY=0.75;entryDx=0;entryDy=0;" parent="1" source="Q8YDhiKlEanWH157P6Ze-94" target="Q8YDhiKlEanWH157P6Ze-76" edge="1">
          <mxGeometry width="50" height="50" relative="1" as="geometry">
            <mxPoint x="360" y="730" as="sourcePoint" />
            <mxPoint x="410" y="680" as="targetPoint" />
          </mxGeometry>
        </mxCell>
        <mxCell id="Q8YDhiKlEanWH157P6Ze-98" value="" style="endArrow=classic;html=1;rounded=0;" parent="1" edge="1">
          <mxGeometry width="50" height="50" relative="1" as="geometry">
            <mxPoint x="540" y="493.82" as="sourcePoint" />
            <mxPoint x="310" y="493.82" as="targetPoint" />
          </mxGeometry>
        </mxCell>
        <mxCell id="Q8YDhiKlEanWH157P6Ze-100" value="Dashboard" style="rounded=0;whiteSpace=wrap;html=1;" parent="1" vertex="1">
          <mxGeometry x="350" y="750" width="120" height="60" as="geometry" />
        </mxCell>
        <mxCell id="Q8YDhiKlEanWH157P6Ze-101" value="" style="endArrow=classic;html=1;rounded=0;entryX=1;entryY=0.5;entryDx=0;entryDy=0;exitX=0;exitY=0.5;exitDx=0;exitDy=0;exitPerimeter=0;" parent="1" source="Q8YDhiKlEanWH157P6Ze-102" target="Q8YDhiKlEanWH157P6Ze-100" edge="1">
          <mxGeometry width="50" height="50" relative="1" as="geometry">
            <mxPoint x="680" y="780" as="sourcePoint" />
            <mxPoint x="790" y="670" as="targetPoint" />
          </mxGeometry>
        </mxCell>
        <mxCell id="Q8YDhiKlEanWH157P6Ze-102" value="Dataware" style="shape=cylinder3;whiteSpace=wrap;html=1;boundedLbl=1;backgroundOutline=1;size=15;" parent="1" vertex="1">
          <mxGeometry x="570" y="740" width="60" height="80" as="geometry" />
        </mxCell>
        <mxCell id="Q8YDhiKlEanWH157P6Ze-112" value="" style="endArrow=classic;html=1;rounded=0;" parent="1" edge="1">
          <mxGeometry width="50" height="50" relative="1" as="geometry">
            <mxPoint x="660" y="490" as="sourcePoint" />
            <mxPoint x="800" y="490" as="targetPoint" />
          </mxGeometry>
        </mxCell>
        <mxCell id="Q8YDhiKlEanWH157P6Ze-113" value="" style="endArrow=classic;html=1;rounded=0;" parent="1" edge="1">
          <mxGeometry width="50" height="50" relative="1" as="geometry">
            <mxPoint x="800" y="500" as="sourcePoint" />
            <mxPoint x="660" y="500" as="targetPoint" />
          </mxGeometry>
        </mxCell>
        <mxCell id="Q8YDhiKlEanWH157P6Ze-115" value="" style="endArrow=classic;html=1;rounded=0;" parent="1" edge="1">
          <mxGeometry width="50" height="50" relative="1" as="geometry">
            <mxPoint x="310" y="530" as="sourcePoint" />
            <mxPoint x="540" y="530" as="targetPoint" />
          </mxGeometry>
        </mxCell>
        <mxCell id="Q8YDhiKlEanWH157P6Ze-116" value="" style="endArrow=classic;html=1;rounded=0;" parent="1" edge="1">
          <mxGeometry width="50" height="50" relative="1" as="geometry">
            <mxPoint x="660" y="167.82999999999998" as="sourcePoint" />
            <mxPoint x="800" y="167.82999999999998" as="targetPoint" />
          </mxGeometry>
        </mxCell>
        <mxCell id="Q8YDhiKlEanWH157P6Ze-117" value="" style="endArrow=classic;html=1;rounded=0;" parent="1" edge="1">
          <mxGeometry width="50" height="50" relative="1" as="geometry">
            <mxPoint x="800" y="177.82999999999998" as="sourcePoint" />
            <mxPoint x="660" y="177.82999999999998" as="targetPoint" />
          </mxGeometry>
        </mxCell>
        <mxCell id="Q8YDhiKlEanWH157P6Ze-120" value="" style="endArrow=classic;html=1;rounded=0;exitX=0;exitY=0.5;exitDx=0;exitDy=0;entryX=0;entryY=0.5;entryDx=0;entryDy=0;edgeStyle=orthogonalEdgeStyle;" parent="1" source="o-77KZspq7QXm6tJVgi0-1" target="Q8YDhiKlEanWH157P6Ze-27" edge="1">
          <mxGeometry width="50" height="50" relative="1" as="geometry">
            <mxPoint x="70" y="500" as="sourcePoint" />
            <mxPoint x="40" y="450" as="targetPoint" />
            <Array as="points">
              <mxPoint x="40" y="115" />
            </Array>
          </mxGeometry>
        </mxCell>
        <mxCell id="Q8YDhiKlEanWH157P6Ze-121" value="&lt;h1&gt;MQTT&lt;/h1&gt;" style="text;html=1;align=center;verticalAlign=middle;resizable=0;points=[];autosize=1;strokeColor=none;fillColor=none;" parent="1" vertex="1">
          <mxGeometry x="30" y="65.24000000000001" width="90" height="70" as="geometry" />
        </mxCell>
        <mxCell id="Q8YDhiKlEanWH157P6Ze-122" value="&lt;h2 style=&quot;&quot;&gt;x2 :&lt;br&gt;&amp;nbsp; &amp;nbsp;- dev&lt;br&gt;&lt;span style=&quot;background-color: initial;&quot;&gt;&amp;nbsp; &amp;nbsp;- prod&lt;/span&gt;&lt;/h2&gt;" style="text;html=1;align=left;verticalAlign=middle;resizable=0;points=[];autosize=1;strokeColor=none;fillColor=none;" parent="1" vertex="1">
          <mxGeometry x="720" y="560" width="90" height="110" as="geometry" />
        </mxCell>
        <mxCell id="Q8YDhiKlEanWH157P6Ze-123" value="&lt;h3&gt;radio&lt;/h3&gt;" style="text;html=1;align=center;verticalAlign=middle;resizable=0;points=[];autosize=1;strokeColor=none;fillColor=none;" parent="1" vertex="1">
          <mxGeometry x="830" y="310" width="60" height="60" as="geometry" />
        </mxCell>
        <mxCell id="Q8YDhiKlEanWH157P6Ze-124" value="" style="rounded=0;whiteSpace=wrap;html=1;fillColor=#76608a;fontColor=#ffffff;strokeColor=#432D57;opacity=50;" parent="1" vertex="1">
          <mxGeometry x="330" y="730" width="160" height="100" as="geometry" />
        </mxCell>
        <mxCell id="o-77KZspq7QXm6tJVgi0-2" value="" style="endArrow=classic;html=1;rounded=0;exitX=0;exitY=0.75;exitDx=0;exitDy=0;entryX=0;entryY=0.5;entryDx=0;entryDy=0;edgeStyle=orthogonalEdgeStyle;" parent="1" source="Q8YDhiKlEanWH157P6Ze-84" target="o-77KZspq7QXm6tJVgi0-1" edge="1">
          <mxGeometry width="50" height="50" relative="1" as="geometry">
            <mxPoint x="160" y="510" as="sourcePoint" />
            <mxPoint x="160" y="115" as="targetPoint" />
            <Array as="points">
              <mxPoint x="160" y="530" />
              <mxPoint x="40" y="530" />
              <mxPoint x="40" y="310" />
            </Array>
          </mxGeometry>
        </mxCell>
        <mxCell id="o-77KZspq7QXm6tJVgi0-1" value="Mosquitto" style="ellipse;whiteSpace=wrap;html=1;aspect=fixed;" parent="1" vertex="1">
          <mxGeometry y="270" width="80" height="80" as="geometry" />
        </mxCell>
        <mxCell id="o-77KZspq7QXm6tJVgi0-3" value="BD&lt;br&gt;EM&lt;br&gt;PostGre" style="shape=cylinder3;whiteSpace=wrap;html=1;boundedLbl=1;backgroundOutline=1;size=15;" parent="1" vertex="1">
          <mxGeometry x="570" y="135.24" width="60" height="86.19" as="geometry" />
        </mxCell>
        <mxCell id="o-77KZspq7QXm6tJVgi0-4" value="Serial" style="text;html=1;align=center;verticalAlign=middle;resizable=0;points=[];autosize=1;strokeColor=none;fillColor=none;" parent="1" vertex="1">
          <mxGeometry x="920" y="465" width="50" height="30" as="geometry" />
        </mxCell>
        <mxCell id="o-77KZspq7QXm6tJVgi0-5" value="Serial" style="text;html=1;align=center;verticalAlign=middle;resizable=0;points=[];autosize=1;strokeColor=none;fillColor=none;" parent="1" vertex="1">
          <mxGeometry x="920" y="176" width="50" height="30" as="geometry" />
        </mxCell>
        <mxCell id="Q8YDhiKlEanWH157P6Ze-107" value="&lt;br&gt;&lt;br&gt;&lt;br&gt;&lt;br&gt;&lt;br&gt;&lt;br&gt;&lt;br&gt;&lt;br&gt;&lt;br&gt;&lt;br&gt;&lt;br&gt;&lt;br&gt;&lt;br&gt;&lt;br&gt;&lt;br&gt;&lt;br&gt;&lt;br&gt;&lt;br&gt;&lt;br&gt;&lt;br&gt;&lt;br&gt;&lt;br&gt;&lt;br&gt;&lt;br&gt;&lt;br&gt;&lt;br&gt;&lt;br&gt;&lt;br&gt;&lt;br&gt;&lt;br&gt;&lt;br&gt;&lt;br&gt;&lt;br&gt;&lt;br&gt;&lt;br&gt;&lt;br&gt;&lt;br&gt;&lt;br&gt;&lt;br&gt;&lt;br&gt;&lt;br&gt;&lt;br&gt;&lt;br&gt;&lt;br&gt;&lt;br&gt;&lt;br&gt;&lt;br&gt;&lt;br&gt;&lt;br&gt;&lt;br&gt;&lt;br&gt;&lt;br&gt;&lt;br&gt;&lt;br&gt;&lt;br&gt;3&amp;nbsp;GB" style="rounded=0;whiteSpace=wrap;html=1;fillColor=#9AC7BF;fontColor=#ffffff;strokeColor=#432D57;opacity=50;" parent="1" vertex="1">
          <mxGeometry x="520" y="10" width="160" height="850" as="geometry" />
        </mxCell>
        <mxCell id="Q8YDhiKlEanWH157P6Ze-118" value="2 GB&lt;br&gt;&lt;br&gt;&lt;br&gt;&lt;br&gt;&lt;br&gt;&lt;br&gt;&lt;br&gt;&lt;br&gt;&lt;br&gt;&lt;br&gt;&lt;br&gt;&lt;br&gt;&lt;br&gt;&lt;br&gt;&lt;br&gt;&lt;br&gt;&lt;br&gt;&lt;br&gt;&lt;br&gt;&lt;br&gt;&lt;br&gt;&lt;br&gt;&lt;br&gt;&lt;br&gt;&lt;br&gt;&lt;br&gt;&lt;br&gt;" style="rounded=0;whiteSpace=wrap;html=1;fillColor=#A9C4EB;fontColor=#ffffff;strokeColor=#432D57;opacity=50;" parent="1" vertex="1">
          <mxGeometry x="140" y="10" width="190" height="410" as="geometry" />
        </mxCell>
        <mxCell id="Q8YDhiKlEanWH157P6Ze-105" value="&lt;br&gt;&lt;br&gt;&lt;br&gt;&lt;br&gt;&lt;br&gt;&lt;br&gt;&lt;br&gt;&lt;br&gt;&lt;br&gt;&lt;br&gt;&lt;br&gt;&lt;br&gt;&lt;br&gt;&lt;br&gt;&lt;br&gt;&lt;br&gt;&lt;br&gt;&lt;br&gt;&lt;br&gt;&lt;br&gt;&lt;br&gt;&lt;br&gt;&lt;br&gt;&lt;br&gt;&lt;br&gt;&lt;br&gt;2 GB" style="rounded=0;whiteSpace=wrap;html=1;fillColor=#76608a;fontColor=#ffffff;strokeColor=#432D57;opacity=50;" parent="1" vertex="1">
          <mxGeometry x="140" y="440" width="190" height="420" as="geometry" />
        </mxCell>
      </root>
    </mxGraphModel>
  </diagram>
  <diagram name="Page-2" id="dO00HroRqYMdC8e7qSw_">
    <mxGraphModel dx="880" dy="532" grid="1" gridSize="10" guides="1" tooltips="1" connect="1" arrows="1" fold="1" page="1" pageScale="1" pageWidth="1169" pageHeight="827" math="0" shadow="0">
      <root>
        <mxCell id="iUPCLJLhskw7iVaU9J6P-0" />
        <mxCell id="iUPCLJLhskw7iVaU9J6P-1" parent="iUPCLJLhskw7iVaU9J6P-0" />
        <mxCell id="iUPCLJLhskw7iVaU9J6P-49" value="&lt;font color=&quot;#000000&quot;&gt;&lt;br&gt;&lt;br&gt;&lt;br&gt;&lt;br&gt;&lt;br&gt;&lt;br&gt;&lt;br&gt;&lt;br&gt;&lt;br&gt;&lt;br&gt;&lt;br&gt;&lt;br&gt;&lt;br&gt;&lt;br&gt;&lt;br&gt;&lt;br&gt;&lt;br&gt;&lt;br&gt;&lt;br&gt;&lt;br&gt;&lt;br&gt;&lt;br&gt;&lt;br&gt;&lt;br&gt;&lt;br&gt;&lt;br&gt;&lt;br&gt;&lt;br&gt;&lt;br&gt;&lt;br&gt;&lt;br&gt;&lt;br&gt;&lt;br&gt;&lt;br&gt;&lt;br&gt;&lt;br&gt;&lt;br&gt;&lt;br&gt;&lt;br&gt;&lt;br&gt;&lt;br&gt;&lt;br&gt;&lt;br&gt;&lt;br&gt;&lt;br&gt;&lt;br&gt;&lt;br&gt;&lt;br&gt;&lt;br&gt;&lt;br&gt;&lt;br&gt;&lt;br&gt;&lt;br&gt;&lt;br&gt;&lt;br&gt;3&amp;nbsp;GB&lt;/font&gt;" style="rounded=0;whiteSpace=wrap;html=1;fillColor=#9AC7BF;fontColor=#ffffff;strokeColor=#432D57;opacity=50;" parent="iUPCLJLhskw7iVaU9J6P-1" vertex="1">
          <mxGeometry x="520" y="10" width="160" height="850" as="geometry" />
        </mxCell>
        <mxCell id="iUPCLJLhskw7iVaU9J6P-50" value="&lt;font color=&quot;#000000&quot;&gt;2 GB&lt;br&gt;&lt;br&gt;&lt;br&gt;&lt;br&gt;&lt;br&gt;&lt;br&gt;&lt;br&gt;&lt;br&gt;&lt;br&gt;&lt;br&gt;&lt;br&gt;&lt;br&gt;&lt;br&gt;&lt;br&gt;&lt;br&gt;&lt;br&gt;&lt;br&gt;&lt;br&gt;&lt;br&gt;&lt;br&gt;&lt;br&gt;&lt;br&gt;&lt;br&gt;&lt;br&gt;&lt;br&gt;&lt;br&gt;&lt;/font&gt;" style="rounded=0;whiteSpace=wrap;html=1;fillColor=#A9C4EB;fontColor=#ffffff;strokeColor=#432D57;opacity=50;" parent="iUPCLJLhskw7iVaU9J6P-1" vertex="1">
          <mxGeometry x="140" y="10" width="190" height="410" as="geometry" />
        </mxCell>
        <mxCell id="iUPCLJLhskw7iVaU9J6P-51" value="&lt;font color=&quot;#000000&quot;&gt;&lt;br&gt;&lt;br&gt;&lt;br&gt;&lt;br&gt;&lt;br&gt;&lt;br&gt;&lt;br&gt;&lt;br&gt;&lt;br&gt;&lt;br&gt;&lt;br&gt;&lt;br&gt;&lt;br&gt;&lt;br&gt;&lt;br&gt;&lt;br&gt;&lt;br&gt;&lt;br&gt;&lt;br&gt;&lt;br&gt;&lt;br&gt;&lt;br&gt;&lt;br&gt;&lt;br&gt;&lt;br&gt;&lt;br&gt;2 GB&lt;/font&gt;" style="rounded=0;whiteSpace=wrap;html=1;fillColor=#76608a;fontColor=#ffffff;strokeColor=#432D57;opacity=50;" parent="iUPCLJLhskw7iVaU9J6P-1" vertex="1">
          <mxGeometry x="140" y="440" width="190" height="420" as="geometry" />
        </mxCell>
        <mxCell id="iUPCLJLhskw7iVaU9J6P-43" value="" style="rounded=0;whiteSpace=wrap;html=1;fillColor=#76608a;fontColor=#ffffff;strokeColor=#432D57;opacity=50;" parent="iUPCLJLhskw7iVaU9J6P-1" vertex="1">
          <mxGeometry x="330" y="730" width="160" height="100" as="geometry" />
        </mxCell>
        <mxCell id="iUPCLJLhskw7iVaU9J6P-2" value="Simulator Engine&lt;br&gt;&lt;br&gt;&lt;br&gt;&lt;br&gt;&lt;br&gt;Java" style="whiteSpace=wrap;html=1;aspect=fixed;fillColor=none;" parent="iUPCLJLhskw7iVaU9J6P-1" vertex="1">
          <mxGeometry x="160" y="250" width="150" height="150" as="geometry" />
        </mxCell>
        <mxCell id="iUPCLJLhskw7iVaU9J6P-3" style="rounded=0;orthogonalLoop=1;jettySize=auto;html=1;exitX=0;exitY=0.5;exitDx=0;exitDy=0;entryX=1;entryY=0.5;entryDx=0;entryDy=0;endArrow=none;endFill=0;" parent="iUPCLJLhskw7iVaU9J6P-1" source="iUPCLJLhskw7iVaU9J6P-2" target="iUPCLJLhskw7iVaU9J6P-2" edge="1">
          <mxGeometry relative="1" as="geometry" />
        </mxCell>
        <mxCell id="iUPCLJLhskw7iVaU9J6P-4" value="Simulator View&lt;br&gt;&lt;br&gt;&lt;br&gt;&lt;br&gt;&lt;br&gt;HTML, JS" style="whiteSpace=wrap;html=1;aspect=fixed;fillColor=none;" parent="iUPCLJLhskw7iVaU9J6P-1" vertex="1">
          <mxGeometry x="160" y="50" width="150" height="150" as="geometry" />
        </mxCell>
        <mxCell id="iUPCLJLhskw7iVaU9J6P-5" style="rounded=0;orthogonalLoop=1;jettySize=auto;html=1;exitX=0;exitY=0.5;exitDx=0;exitDy=0;entryX=1;entryY=0.5;entryDx=0;entryDy=0;endArrow=none;endFill=0;" parent="iUPCLJLhskw7iVaU9J6P-1" source="iUPCLJLhskw7iVaU9J6P-4" target="iUPCLJLhskw7iVaU9J6P-4" edge="1">
          <mxGeometry relative="1" as="geometry">
            <Array as="points" />
          </mxGeometry>
        </mxCell>
        <mxCell id="iUPCLJLhskw7iVaU9J6P-7" value="" style="endArrow=classic;html=1;rounded=0;exitX=0;exitY=0.75;exitDx=0;exitDy=0;entryX=1;entryY=1;entryDx=0;entryDy=0;" parent="iUPCLJLhskw7iVaU9J6P-1" edge="1">
          <mxGeometry width="50" height="50" relative="1" as="geometry">
            <mxPoint x="540" y="120" as="sourcePoint" />
            <mxPoint x="310" y="120" as="targetPoint" />
          </mxGeometry>
        </mxCell>
        <mxCell id="iUPCLJLhskw7iVaU9J6P-8" value="" style="group" parent="iUPCLJLhskw7iVaU9J6P-1" vertex="1" connectable="0">
          <mxGeometry x="800" y="160" width="120" height="90" as="geometry" />
        </mxCell>
        <mxCell id="iUPCLJLhskw7iVaU9J6P-9" value="Micro:bit" style="shape=or;whiteSpace=wrap;html=1;direction=south;" parent="iUPCLJLhskw7iVaU9J6P-8" vertex="1">
          <mxGeometry y="30" width="120" height="60" as="geometry" />
        </mxCell>
        <mxCell id="iUPCLJLhskw7iVaU9J6P-10" value="Python" style="rounded=0;whiteSpace=wrap;html=1;" parent="iUPCLJLhskw7iVaU9J6P-8" vertex="1">
          <mxGeometry width="120" height="30" as="geometry" />
        </mxCell>
        <mxCell id="iUPCLJLhskw7iVaU9J6P-11" value="" style="endArrow=classic;html=1;rounded=0;entryX=0;entryY=0.5;entryDx=0;entryDy=0;" parent="iUPCLJLhskw7iVaU9J6P-1" edge="1">
          <mxGeometry width="50" height="50" relative="1" as="geometry">
            <mxPoint x="310" y="110" as="sourcePoint" />
            <mxPoint x="540" y="110" as="targetPoint" />
          </mxGeometry>
        </mxCell>
        <mxCell id="iUPCLJLhskw7iVaU9J6P-12" value="" style="endArrow=classic;html=1;rounded=0;exitX=0.008;exitY=0.885;exitDx=0;exitDy=0;exitPerimeter=0;" parent="iUPCLJLhskw7iVaU9J6P-1" source="iUPCLJLhskw7iVaU9J6P-17" edge="1">
          <mxGeometry width="50" height="50" relative="1" as="geometry">
            <mxPoint x="500" y="210" as="sourcePoint" />
            <mxPoint x="310" y="290" as="targetPoint" />
          </mxGeometry>
        </mxCell>
        <mxCell id="iUPCLJLhskw7iVaU9J6P-13" value="" style="sketch=0;pointerEvents=1;shadow=0;dashed=0;html=1;strokeColor=none;fillColor=#000000;aspect=fixed;labelPosition=center;verticalLabelPosition=bottom;verticalAlign=top;align=center;outlineConnect=0;shape=mxgraph.vvd.wi_fi;rotation=45;direction=south;" parent="iUPCLJLhskw7iVaU9J6P-1" vertex="1">
          <mxGeometry x="835" y="260" width="50" height="50" as="geometry" />
        </mxCell>
        <mxCell id="iUPCLJLhskw7iVaU9J6P-14" value="" style="sketch=0;pointerEvents=1;shadow=0;dashed=0;html=1;strokeColor=none;fillColor=#000000;aspect=fixed;labelPosition=center;verticalLabelPosition=bottom;verticalAlign=top;align=center;outlineConnect=0;shape=mxgraph.vvd.wi_fi;rotation=45;direction=north;fillStyle=solid;" parent="iUPCLJLhskw7iVaU9J6P-1" vertex="1">
          <mxGeometry x="835" y="360" width="50" height="50" as="geometry" />
        </mxCell>
        <mxCell id="iUPCLJLhskw7iVaU9J6P-15" value="Micro:bit" style="shape=or;whiteSpace=wrap;html=1;rotation=-90;" parent="iUPCLJLhskw7iVaU9J6P-1" vertex="1">
          <mxGeometry x="830" y="390" width="60" height="120" as="geometry" />
        </mxCell>
        <mxCell id="iUPCLJLhskw7iVaU9J6P-16" value="Python" style="rounded=0;whiteSpace=wrap;html=1;" parent="iUPCLJLhskw7iVaU9J6P-1" vertex="1">
          <mxGeometry x="800" y="480" width="120" height="30" as="geometry" />
        </mxCell>
        <mxCell id="iUPCLJLhskw7iVaU9J6P-17" value="API Rest&lt;br&gt;&lt;br&gt;Python&lt;br&gt;&lt;br&gt;&lt;br&gt;&lt;br&gt;&lt;br&gt;&lt;br&gt;&lt;br&gt;&lt;br&gt;&lt;br&gt;" style="rounded=0;whiteSpace=wrap;html=1;fillColor=none;" parent="iUPCLJLhskw7iVaU9J6P-1" vertex="1">
          <mxGeometry x="540" y="40" width="120" height="200" as="geometry" />
        </mxCell>
        <mxCell id="iUPCLJLhskw7iVaU9J6P-18" style="edgeStyle=orthogonalEdgeStyle;rounded=0;orthogonalLoop=1;jettySize=auto;html=1;exitX=0.5;exitY=1;exitDx=0;exitDy=0;" parent="iUPCLJLhskw7iVaU9J6P-1" source="iUPCLJLhskw7iVaU9J6P-17" target="iUPCLJLhskw7iVaU9J6P-17" edge="1">
          <mxGeometry relative="1" as="geometry" />
        </mxCell>
        <mxCell id="iUPCLJLhskw7iVaU9J6P-19" value="API Rest&lt;br&gt;&lt;br&gt;Python&lt;br&gt;&lt;br&gt;&lt;br&gt;&lt;br&gt;&lt;br&gt;&lt;br&gt;&lt;br&gt;&lt;br&gt;&lt;br&gt;" style="rounded=0;whiteSpace=wrap;html=1;fillColor=none;" parent="iUPCLJLhskw7iVaU9J6P-1" vertex="1">
          <mxGeometry x="540" y="460" width="120" height="200" as="geometry" />
        </mxCell>
        <mxCell id="iUPCLJLhskw7iVaU9J6P-20" value="BD&lt;br&gt;EM&lt;br&gt;PostGre" style="shape=cylinder3;whiteSpace=wrap;html=1;boundedLbl=1;backgroundOutline=1;size=15;fillColor=none;" parent="iUPCLJLhskw7iVaU9J6P-1" vertex="1">
          <mxGeometry x="570" y="550" width="60" height="86.19" as="geometry" />
        </mxCell>
        <mxCell id="iUPCLJLhskw7iVaU9J6P-21" value="Emergency Manager&lt;br&gt;&lt;br&gt;&lt;br&gt;Java" style="whiteSpace=wrap;html=1;fillColor=none;" parent="iUPCLJLhskw7iVaU9J6P-1" vertex="1">
          <mxGeometry x="160" y="460" width="150" height="100" as="geometry" />
        </mxCell>
        <mxCell id="iUPCLJLhskw7iVaU9J6P-22" style="rounded=0;orthogonalLoop=1;jettySize=auto;html=1;exitX=0;exitY=0.5;exitDx=0;exitDy=0;entryX=1;entryY=0.5;entryDx=0;entryDy=0;endArrow=none;endFill=0;" parent="iUPCLJLhskw7iVaU9J6P-1" source="iUPCLJLhskw7iVaU9J6P-21" target="iUPCLJLhskw7iVaU9J6P-21" edge="1">
          <mxGeometry relative="1" as="geometry" />
        </mxCell>
        <mxCell id="iUPCLJLhskw7iVaU9J6P-23" value="Emergency View&lt;br&gt;&lt;br&gt;&lt;br&gt;HTML, JS, framework ?" style="whiteSpace=wrap;html=1;fillColor=none;" parent="iUPCLJLhskw7iVaU9J6P-1" vertex="1">
          <mxGeometry x="160" y="590" width="150" height="100" as="geometry" />
        </mxCell>
        <mxCell id="iUPCLJLhskw7iVaU9J6P-24" style="rounded=0;orthogonalLoop=1;jettySize=auto;html=1;exitX=0;exitY=0.5;exitDx=0;exitDy=0;entryX=1;entryY=0.5;entryDx=0;entryDy=0;endArrow=none;endFill=0;" parent="iUPCLJLhskw7iVaU9J6P-1" source="iUPCLJLhskw7iVaU9J6P-23" target="iUPCLJLhskw7iVaU9J6P-23" edge="1">
          <mxGeometry relative="1" as="geometry" />
        </mxCell>
        <mxCell id="iUPCLJLhskw7iVaU9J6P-25" value="" style="endArrow=classic;html=1;rounded=0;entryX=1;entryY=0.5;entryDx=0;entryDy=0;" parent="iUPCLJLhskw7iVaU9J6P-1" target="iUPCLJLhskw7iVaU9J6P-23" edge="1">
          <mxGeometry width="50" height="50" relative="1" as="geometry">
            <mxPoint x="540" y="568" as="sourcePoint" />
            <mxPoint x="490" y="600" as="targetPoint" />
          </mxGeometry>
        </mxCell>
        <mxCell id="iUPCLJLhskw7iVaU9J6P-26" value="" style="endArrow=classic;html=1;rounded=0;entryX=0.5;entryY=0;entryDx=0;entryDy=0;exitX=0.5;exitY=1;exitDx=0;exitDy=0;entryPerimeter=0;" parent="iUPCLJLhskw7iVaU9J6P-1" source="iUPCLJLhskw7iVaU9J6P-19" target="iUPCLJLhskw7iVaU9J6P-33" edge="1">
          <mxGeometry width="50" height="50" relative="1" as="geometry">
            <mxPoint x="770" y="800" as="sourcePoint" />
            <mxPoint x="620" y="750" as="targetPoint" />
          </mxGeometry>
        </mxCell>
        <mxCell id="iUPCLJLhskw7iVaU9J6P-27" value="Emergency Gestion&lt;br&gt;&lt;br&gt;&lt;br&gt;HTML, JS, framework ?" style="whiteSpace=wrap;html=1;fillColor=none;" parent="iUPCLJLhskw7iVaU9J6P-1" vertex="1">
          <mxGeometry x="160" y="710" width="150" height="100" as="geometry" />
        </mxCell>
        <mxCell id="iUPCLJLhskw7iVaU9J6P-28" style="rounded=0;orthogonalLoop=1;jettySize=auto;html=1;exitX=0;exitY=0.5;exitDx=0;exitDy=0;entryX=1;entryY=0.5;entryDx=0;entryDy=0;endArrow=none;endFill=0;" parent="iUPCLJLhskw7iVaU9J6P-1" source="iUPCLJLhskw7iVaU9J6P-27" target="iUPCLJLhskw7iVaU9J6P-27" edge="1">
          <mxGeometry relative="1" as="geometry" />
        </mxCell>
        <mxCell id="iUPCLJLhskw7iVaU9J6P-29" value="" style="endArrow=classic;html=1;rounded=0;entryX=0;entryY=0.75;entryDx=0;entryDy=0;exitX=1;exitY=0;exitDx=0;exitDy=0;" parent="iUPCLJLhskw7iVaU9J6P-1" source="iUPCLJLhskw7iVaU9J6P-27" target="iUPCLJLhskw7iVaU9J6P-19" edge="1">
          <mxGeometry width="50" height="50" relative="1" as="geometry">
            <mxPoint x="350" y="710" as="sourcePoint" />
            <mxPoint x="410" y="680" as="targetPoint" />
          </mxGeometry>
        </mxCell>
        <mxCell id="iUPCLJLhskw7iVaU9J6P-30" value="" style="endArrow=classic;html=1;rounded=0;" parent="iUPCLJLhskw7iVaU9J6P-1" edge="1">
          <mxGeometry width="50" height="50" relative="1" as="geometry">
            <mxPoint x="540" y="509" as="sourcePoint" />
            <mxPoint x="310" y="509" as="targetPoint" />
          </mxGeometry>
        </mxCell>
        <mxCell id="iUPCLJLhskw7iVaU9J6P-31" value="Dashboard" style="rounded=0;whiteSpace=wrap;html=1;fillColor=none;" parent="iUPCLJLhskw7iVaU9J6P-1" vertex="1">
          <mxGeometry x="350" y="750" width="120" height="60" as="geometry" />
        </mxCell>
        <mxCell id="iUPCLJLhskw7iVaU9J6P-32" value="" style="endArrow=classic;html=1;rounded=0;entryX=1;entryY=0.5;entryDx=0;entryDy=0;exitX=0;exitY=0.5;exitDx=0;exitDy=0;exitPerimeter=0;" parent="iUPCLJLhskw7iVaU9J6P-1" source="iUPCLJLhskw7iVaU9J6P-33" target="iUPCLJLhskw7iVaU9J6P-31" edge="1">
          <mxGeometry width="50" height="50" relative="1" as="geometry">
            <mxPoint x="680" y="780" as="sourcePoint" />
            <mxPoint x="790" y="670" as="targetPoint" />
          </mxGeometry>
        </mxCell>
        <mxCell id="iUPCLJLhskw7iVaU9J6P-33" value="Dataware" style="shape=cylinder3;whiteSpace=wrap;html=1;boundedLbl=1;backgroundOutline=1;size=15;fillColor=none;" parent="iUPCLJLhskw7iVaU9J6P-1" vertex="1">
          <mxGeometry x="570" y="740" width="60" height="80" as="geometry" />
        </mxCell>
        <mxCell id="iUPCLJLhskw7iVaU9J6P-34" value="" style="endArrow=classic;html=1;rounded=0;" parent="iUPCLJLhskw7iVaU9J6P-1" edge="1">
          <mxGeometry width="50" height="50" relative="1" as="geometry">
            <mxPoint x="660" y="490" as="sourcePoint" />
            <mxPoint x="800" y="490" as="targetPoint" />
          </mxGeometry>
        </mxCell>
        <mxCell id="iUPCLJLhskw7iVaU9J6P-35" value="" style="endArrow=classic;html=1;rounded=0;" parent="iUPCLJLhskw7iVaU9J6P-1" edge="1">
          <mxGeometry width="50" height="50" relative="1" as="geometry">
            <mxPoint x="800" y="500" as="sourcePoint" />
            <mxPoint x="660" y="500" as="targetPoint" />
          </mxGeometry>
        </mxCell>
        <mxCell id="iUPCLJLhskw7iVaU9J6P-36" value="" style="endArrow=classic;html=1;rounded=0;" parent="iUPCLJLhskw7iVaU9J6P-1" edge="1">
          <mxGeometry width="50" height="50" relative="1" as="geometry">
            <mxPoint x="310" y="520" as="sourcePoint" />
            <mxPoint x="540" y="520" as="targetPoint" />
          </mxGeometry>
        </mxCell>
        <mxCell id="iUPCLJLhskw7iVaU9J6P-37" value="" style="endArrow=classic;html=1;rounded=0;" parent="iUPCLJLhskw7iVaU9J6P-1" edge="1">
          <mxGeometry width="50" height="50" relative="1" as="geometry">
            <mxPoint x="660" y="167.82999999999998" as="sourcePoint" />
            <mxPoint x="800" y="167.82999999999998" as="targetPoint" />
          </mxGeometry>
        </mxCell>
        <mxCell id="iUPCLJLhskw7iVaU9J6P-38" value="" style="endArrow=classic;html=1;rounded=0;" parent="iUPCLJLhskw7iVaU9J6P-1" edge="1">
          <mxGeometry width="50" height="50" relative="1" as="geometry">
            <mxPoint x="800" y="177.82999999999998" as="sourcePoint" />
            <mxPoint x="660" y="177.82999999999998" as="targetPoint" />
          </mxGeometry>
        </mxCell>
        <mxCell id="iUPCLJLhskw7iVaU9J6P-41" value="&lt;h2 style=&quot;&quot;&gt;x2 :&lt;br&gt;&amp;nbsp; &amp;nbsp;- dev&lt;br&gt;&lt;span style=&quot;background-color: initial;&quot;&gt;&amp;nbsp; &amp;nbsp;- prod&lt;/span&gt;&lt;/h2&gt;" style="text;html=1;align=left;verticalAlign=middle;resizable=0;points=[];autosize=1;strokeColor=none;fillColor=none;" parent="iUPCLJLhskw7iVaU9J6P-1" vertex="1">
          <mxGeometry x="815" y="730" width="90" height="110" as="geometry" />
        </mxCell>
        <mxCell id="iUPCLJLhskw7iVaU9J6P-42" value="&lt;h3&gt;RADIO&lt;/h3&gt;" style="text;html=1;align=center;verticalAlign=middle;resizable=0;points=[];autosize=1;strokeColor=none;fillColor=none;" parent="iUPCLJLhskw7iVaU9J6P-1" vertex="1">
          <mxGeometry x="825" y="310" width="70" height="60" as="geometry" />
        </mxCell>
        <mxCell id="iUPCLJLhskw7iVaU9J6P-45" value="Mosquitto" style="ellipse;whiteSpace=wrap;html=1;aspect=fixed;fillColor=none;" parent="iUPCLJLhskw7iVaU9J6P-1" vertex="1">
          <mxGeometry x="560" y="310" width="80" height="80" as="geometry" />
        </mxCell>
        <mxCell id="iUPCLJLhskw7iVaU9J6P-46" value="BD&lt;br&gt;EM&lt;br&gt;PostGre" style="shape=cylinder3;whiteSpace=wrap;html=1;boundedLbl=1;backgroundOutline=1;size=15;fillColor=none;" parent="iUPCLJLhskw7iVaU9J6P-1" vertex="1">
          <mxGeometry x="570" y="135.24" width="60" height="86.19" as="geometry" />
        </mxCell>
        <mxCell id="iUPCLJLhskw7iVaU9J6P-47" value="Serial" style="text;html=1;align=center;verticalAlign=middle;resizable=0;points=[];autosize=1;strokeColor=none;fillColor=none;" parent="iUPCLJLhskw7iVaU9J6P-1" vertex="1">
          <mxGeometry x="920" y="465" width="50" height="30" as="geometry" />
        </mxCell>
        <mxCell id="iUPCLJLhskw7iVaU9J6P-48" value="Serial" style="text;html=1;align=center;verticalAlign=middle;resizable=0;points=[];autosize=1;strokeColor=none;fillColor=none;" parent="iUPCLJLhskw7iVaU9J6P-1" vertex="1">
          <mxGeometry x="920" y="176" width="50" height="30" as="geometry" />
        </mxCell>
        <mxCell id="4N5_zhMrSfKlccx_XaAT-1" value="" style="endArrow=none;html=1;rounded=0;exitX=1;exitY=0;exitDx=0;exitDy=0;startArrow=classic;startFill=1;endFill=0;" parent="iUPCLJLhskw7iVaU9J6P-1" source="iUPCLJLhskw7iVaU9J6P-21" target="iUPCLJLhskw7iVaU9J6P-45" edge="1">
          <mxGeometry width="50" height="50" relative="1" as="geometry">
            <mxPoint x="440" y="410" as="sourcePoint" />
            <mxPoint x="470" y="400" as="targetPoint" />
          </mxGeometry>
        </mxCell>
        <mxCell id="4N5_zhMrSfKlccx_XaAT-2" value="" style="endArrow=none;html=1;rounded=0;exitX=0.993;exitY=0.575;exitDx=0;exitDy=0;startArrow=classic;startFill=1;endFill=0;exitPerimeter=0;" parent="iUPCLJLhskw7iVaU9J6P-1" source="iUPCLJLhskw7iVaU9J6P-2" edge="1">
          <mxGeometry width="50" height="50" relative="1" as="geometry">
            <mxPoint x="370" y="180" as="sourcePoint" />
            <mxPoint x="560" y="340" as="targetPoint" />
          </mxGeometry>
        </mxCell>
        <mxCell id="4N5_zhMrSfKlccx_XaAT-3" value="&lt;h3&gt;HTTP&lt;/h3&gt;" style="text;html=1;align=center;verticalAlign=middle;resizable=0;points=[];autosize=1;strokeColor=none;fillColor=none;" parent="iUPCLJLhskw7iVaU9J6P-1" vertex="1">
          <mxGeometry x="705" y="130" width="60" height="60" as="geometry" />
        </mxCell>
        <mxCell id="4N5_zhMrSfKlccx_XaAT-4" value="&lt;h3&gt;HTTP&lt;/h3&gt;" style="text;html=1;align=center;verticalAlign=middle;resizable=0;points=[];autosize=1;strokeColor=none;fillColor=none;" parent="iUPCLJLhskw7iVaU9J6P-1" vertex="1">
          <mxGeometry x="710" y="450" width="60" height="60" as="geometry" />
        </mxCell>
        <mxCell id="4N5_zhMrSfKlccx_XaAT-5" value="&lt;h3&gt;HTTP&lt;/h3&gt;" style="text;html=1;align=center;verticalAlign=middle;resizable=0;points=[];autosize=1;strokeColor=none;fillColor=none;" parent="iUPCLJLhskw7iVaU9J6P-1" vertex="1">
          <mxGeometry x="390" y="70" width="60" height="60" as="geometry" />
        </mxCell>
        <mxCell id="4N5_zhMrSfKlccx_XaAT-7" value="&lt;h3&gt;MQTT&lt;/h3&gt;" style="text;html=1;align=center;verticalAlign=middle;resizable=0;points=[];autosize=1;strokeColor=none;fillColor=none;" parent="iUPCLJLhskw7iVaU9J6P-1" vertex="1">
          <mxGeometry x="390" y="295" width="60" height="60" as="geometry" />
        </mxCell>
        <mxCell id="4N5_zhMrSfKlccx_XaAT-8" value="" style="endArrow=classic;html=1;rounded=0;exitX=1.013;exitY=0.367;exitDx=0;exitDy=0;exitPerimeter=0;entryX=0.008;entryY=0.965;entryDx=0;entryDy=0;entryPerimeter=0;" parent="iUPCLJLhskw7iVaU9J6P-1" source="iUPCLJLhskw7iVaU9J6P-2" target="iUPCLJLhskw7iVaU9J6P-17" edge="1">
          <mxGeometry width="50" height="50" relative="1" as="geometry">
            <mxPoint x="380" y="310" as="sourcePoint" />
            <mxPoint x="500" y="250" as="targetPoint" />
          </mxGeometry>
        </mxCell>
        <mxCell id="4N5_zhMrSfKlccx_XaAT-10" value="&lt;h3&gt;HTTP&lt;/h3&gt;" style="text;html=1;align=center;verticalAlign=middle;resizable=0;points=[];autosize=1;strokeColor=none;fillColor=none;rotation=-15;" parent="iUPCLJLhskw7iVaU9J6P-1" vertex="1">
          <mxGeometry x="380" y="221.43" width="60" height="60" as="geometry" />
        </mxCell>
        <mxCell id="4N5_zhMrSfKlccx_XaAT-11" value="&lt;h3&gt;MQTT&lt;/h3&gt;" style="text;html=1;align=center;verticalAlign=middle;resizable=0;points=[];autosize=1;strokeColor=none;fillColor=none;rotation=-20;" parent="iUPCLJLhskw7iVaU9J6P-1" vertex="1">
          <mxGeometry x="390" y="380" width="60" height="60" as="geometry" />
        </mxCell>
        <mxCell id="4N5_zhMrSfKlccx_XaAT-12" value="&lt;h3&gt;HTTP&lt;/h3&gt;" style="text;html=1;align=center;verticalAlign=middle;resizable=0;points=[];autosize=1;strokeColor=none;fillColor=none;" parent="iUPCLJLhskw7iVaU9J6P-1" vertex="1">
          <mxGeometry x="390" y="470" width="60" height="60" as="geometry" />
        </mxCell>
        <mxCell id="4N5_zhMrSfKlccx_XaAT-13" value="&lt;h3&gt;HTTP&lt;/h3&gt;" style="text;html=1;align=center;verticalAlign=middle;resizable=0;points=[];autosize=1;strokeColor=none;fillColor=none;rotation=-15;" parent="iUPCLJLhskw7iVaU9J6P-1" vertex="1">
          <mxGeometry x="390" y="563.09" width="60" height="60" as="geometry" />
        </mxCell>
        <mxCell id="4N5_zhMrSfKlccx_XaAT-19" value="&lt;h3&gt;HTTP&lt;/h3&gt;" style="text;html=1;align=center;verticalAlign=middle;resizable=0;points=[];autosize=1;strokeColor=none;fillColor=none;rotation=-25;" parent="iUPCLJLhskw7iVaU9J6P-1" vertex="1">
          <mxGeometry x="390" y="623.09" width="60" height="60" as="geometry" />
        </mxCell>
        <mxCell id="4N5_zhMrSfKlccx_XaAT-21" value="&lt;h3&gt;SQL&lt;/h3&gt;" style="text;html=1;align=center;verticalAlign=middle;resizable=0;points=[];autosize=1;strokeColor=none;fillColor=none;" parent="iUPCLJLhskw7iVaU9J6P-1" vertex="1">
          <mxGeometry x="485" y="740" width="50" height="60" as="geometry" />
        </mxCell>
        <mxCell id="hk3s5lmc7Ueu1RJdU6r4-1" value="" style="endArrow=classic;html=1;rounded=0;entryX=0;entryY=0.625;entryDx=0;entryDy=0;entryPerimeter=0;exitX=1.001;exitY=0.667;exitDx=0;exitDy=0;exitPerimeter=0;" parent="iUPCLJLhskw7iVaU9J6P-1" source="iUPCLJLhskw7iVaU9J6P-31" target="iUPCLJLhskw7iVaU9J6P-33" edge="1">
          <mxGeometry width="50" height="50" relative="1" as="geometry">
            <mxPoint x="500" y="860" as="sourcePoint" />
            <mxPoint x="480" y="790" as="targetPoint" />
          </mxGeometry>
        </mxCell>
        <mxCell id="hk3s5lmc7Ueu1RJdU6r4-2" value="" style="endArrow=classic;html=1;rounded=0;startArrow=none;startFill=0;endFill=1;exitX=1.005;exitY=0.111;exitDx=0;exitDy=0;exitPerimeter=0;" parent="iUPCLJLhskw7iVaU9J6P-1" source="iUPCLJLhskw7iVaU9J6P-21" edge="1">
          <mxGeometry width="50" height="50" relative="1" as="geometry">
            <mxPoint x="350" y="470" as="sourcePoint" />
            <mxPoint x="573" y="374" as="targetPoint" />
          </mxGeometry>
        </mxCell>
        <mxCell id="hk3s5lmc7Ueu1RJdU6r4-3" value="" style="endArrow=classic;html=1;rounded=0;exitX=1.005;exitY=0.659;exitDx=0;exitDy=0;startArrow=none;startFill=0;endFill=1;exitPerimeter=0;entryX=0;entryY=0.5;entryDx=0;entryDy=0;" parent="iUPCLJLhskw7iVaU9J6P-1" source="iUPCLJLhskw7iVaU9J6P-2" target="iUPCLJLhskw7iVaU9J6P-45" edge="1">
          <mxGeometry width="50" height="50" relative="1" as="geometry">
            <mxPoint x="319" y="346" as="sourcePoint" />
            <mxPoint x="570" y="350" as="targetPoint" />
          </mxGeometry>
        </mxCell>
        <mxCell id="hk3s5lmc7Ueu1RJdU6r4-4" value="" style="endArrow=classic;html=1;rounded=0;entryX=1.012;entryY=0.08;entryDx=0;entryDy=0;exitX=-0.015;exitY=0.81;exitDx=0;exitDy=0;exitPerimeter=0;entryPerimeter=0;" parent="iUPCLJLhskw7iVaU9J6P-1" source="iUPCLJLhskw7iVaU9J6P-19" target="iUPCLJLhskw7iVaU9J6P-27" edge="1">
          <mxGeometry width="50" height="50" relative="1" as="geometry">
            <mxPoint x="552" y="578" as="sourcePoint" />
            <mxPoint x="320" y="650" as="targetPoint" />
          </mxGeometry>
        </mxCell>
      </root>
    </mxGraphModel>
  </diagram>
</mxfile>
